<svg id="1" viewBox="0 0 272 43" fill="none" xmlns="http://www.w3.org/2000/svg">
<path d="M148.414 9.26062V13.2294H164.252V19.8993H148.414V28.6297H139.258V2.40373H167.594V9.26062H148.414ZM188.86 24.099H175.725L173.585 28.6327H164.053L177.376 2.40373H187.322L200.638 28.6327H190.994L188.86 24.099ZM186.887 18.1779L183.097 10.0804L179.308 18.1779H186.887ZM223.368 18.5528L230.913 22.5245C228.548 26.4973 223.031 29.4944 215.75 29.4944C205.805 29.4944 198.9 24.4729 198.9 15.5177C198.9 6.56244 205.809 1.54199 216.089 1.54199C223.031 1.54199 228.511 4.57706 230.8 8.47386L223.219 12.4076C222.45 11.2036 221.373 10.2255 220.101 9.57378C218.828 8.92202 217.404 8.62004 215.976 8.69879C211.322 8.69879 208.166 11.171 208.166 15.5177C208.166 19.8644 211.318 22.3376 215.976 22.3376C217.434 22.4235 218.889 22.1177 220.189 21.4521C221.489 20.7865 222.587 19.7854 223.368 18.5528ZM263.647 9.33559H253.251V28.6297H244.094V9.3306H233.736V2.40373H263.643L263.647 9.33559Z" fill="#191919"/>
<path d="M261.742 24.8858C261.742 22.4866 263.769 20.5762 266.696 20.5762C269.661 20.5762 271.688 22.4876 271.688 24.8858C271.688 27.3211 269.661 29.1945 266.696 29.1945C263.766 29.1945 261.742 27.3251 261.742 24.8858Z" fill="#191919"/>
<path d="M26.4258 22.6526H10.3855L7.54178 28.2508H1.05859L15.1265 1.75H21.7618L35.8297 28.2508H29.2703L26.4258 22.6526Z" stroke="#191919" stroke-miterlimit="10"/>
<path d="M23.8845 17.7282L18.3866 6.93848L12.8887 17.7282H23.8845Z" stroke="#191919" stroke-miterlimit="10"/>
<path d="M62.1887 28.2557L54.5671 19.2455H44.975V28.2557H38.9453V1.75488H57.2585C63.7437 1.75488 68.6349 4.74596 68.6349 10.5002C68.6349 15.0048 65.6392 17.8069 61.2416 18.8286L69.4309 28.2557H62.1887Z" stroke="#191919" stroke-miterlimit="10"/>
<path d="M56.9178 14.2479C60.1038 14.2479 62.4547 13.4901 62.4547 10.538C62.4547 7.58591 60.1038 6.82715 56.9178 6.82715H44.9355V14.2479H56.9178Z" stroke="#191919" stroke-miterlimit="10"/>
<path d="M100.377 6.97927H88.7729V28.2557H82.7062V6.97927H71.1797V1.75488H100.377V6.97927Z" stroke="#191919" stroke-miterlimit="10"/>
<path d="M133.886 26.3422L130.281 23.712C132.074 21.3844 133.083 18.5498 133.163 15.6145H127.778C127.736 17.4115 127.24 19.1689 126.337 20.7239L116.782 13.3802C113.826 11.1089 112.271 10.0482 112.271 8.34474C112.271 6.41433 114.166 5.27868 117.162 5.27868C120.266 5.27868 122.584 6.5283 124.631 9.93425L129.599 7.92887C127.55 4.29499 123.91 1 117.01 1C110.487 1 106.469 4.14303 106.469 8.38273C106.492 9.30049 106.713 10.2024 107.119 11.0262C107.525 11.8499 108.106 12.5757 108.82 13.1533C105.332 14.5528 103.322 17.09 103.322 20.0801C103.322 25.1536 109.237 29.0154 117.24 29.0154C120.542 29.1179 123.812 28.3471 126.719 26.7811L131.113 30.0411L133.886 26.3422ZM117.545 24.6967C112.995 24.6967 109.354 22.9173 109.354 19.5473C109.359 18.7313 109.579 17.9311 109.992 17.2269C110.405 16.5227 110.996 15.9394 111.706 15.5355L122.701 23.75C121.065 24.4148 119.311 24.7371 117.545 24.6967V24.6967Z" stroke="#191919" stroke-miterlimit="10"/>
<path d="M5.01455 37.9705C5.76709 37.9199 6.14336 37.4278 6.14336 36.8489C6.14336 36.0313 5.37635 35.5537 4.1607 35.5537H0.680184V40.6189H4.45014C5.66579 40.6189 6.4328 40.1268 6.4328 39.2296C6.4328 38.4264 5.81051 38.0139 5.01455 37.9705ZM1.82347 36.4654H3.97256C4.6021 36.4654 4.99284 36.574 4.99284 37.0371C4.99284 37.5074 4.6021 37.6087 3.97256 37.6087H1.82347V36.4654ZM4.21135 39.7072H1.82347V38.4915H4.21135C4.86259 38.4915 5.2461 38.5856 5.2461 39.0993C5.2461 39.6059 4.86259 39.7072 4.21135 39.7072ZM8.58619 39.6493V38.5349H11.922V37.5653H8.58619V36.5233H12.5805V35.5537H7.43567V40.6189H12.6528V39.6493H8.58619ZM18.372 40.6189H19.6238L16.9393 35.5537H15.673L12.9884 40.6189H14.2258L14.7685 39.548H17.8293L18.372 40.6189ZM15.246 38.6073L16.2952 36.545L17.3445 38.6073H15.246ZM24.4568 35.5537V38.1442C24.4568 39.1572 23.8634 39.765 22.7708 39.765C21.6782 39.765 21.0848 39.1572 21.0848 38.1442V35.5537H19.927V38.231C19.927 39.7506 20.9328 40.7781 22.7708 40.7781C24.6087 40.7781 25.6145 39.7506 25.6145 38.231V35.5537H24.4568ZM31.897 35.5537H26.3252V36.5523H28.525V40.6189H29.6828V36.5523H31.897V35.5537ZM32.0325 35.5537L34.4711 38.8895V40.6189H35.6288V38.8895L38.0674 35.5537H36.7576L35.0572 37.9271L33.3495 35.5537H32.0325ZM74.5791 40.6189L73.4503 39.7506C73.7831 39.3309 73.9713 38.8027 74.0002 38.2021H72.9727C72.951 38.6001 72.8569 38.9184 72.6977 39.1789L70.8742 37.7751C70.3098 37.341 70.0132 37.1384 70.0132 36.8128C70.0132 36.4437 70.375 36.2266 70.9466 36.2266C71.54 36.2266 71.9814 36.4654 72.3721 37.1167L73.32 36.7332C72.9293 36.0385 72.2346 35.409 70.9177 35.409C69.6731 35.409 68.9061 36.0096 68.9061 36.82C68.9061 37.1963 69.0797 37.4712 69.3547 37.7317C68.689 37.9995 68.3055 38.4843 68.3055 39.0559C68.3055 40.0255 69.4343 40.7636 70.9611 40.7636C71.6919 40.7636 72.2925 40.6117 72.7701 40.3367L73.1464 40.6189H74.5791ZM71.019 39.9387C70.1506 39.9387 69.456 39.5986 69.456 38.9546C69.456 38.6652 69.5935 38.383 69.9046 38.1876L72.0031 39.7578C71.7209 39.8808 71.388 39.9387 71.019 39.9387ZM115.949 35.5537V37.5436H112.498V35.5537H111.34V40.6189H112.498V38.5566H115.949V40.6189H117.107V35.5537H115.949ZM119.621 39.6493V38.5349H122.956V37.5653H119.621V36.5233H123.615V35.5537H118.47V40.6189H123.687V39.6493H119.621ZM129.406 40.6189H130.658L127.974 35.5537H126.707L124.023 40.6189H125.26L125.803 39.548H128.864L129.406 40.6189ZM126.28 38.6073L127.33 36.545L128.379 38.6073H126.28ZM132.503 39.6203V35.5537H131.345V40.6189H136.085V39.6203H132.503ZM140.833 35.5537H135.261V36.5523H137.461V40.6189H138.618V36.5523H140.833V35.5537ZM146.236 35.5537V37.5436H142.784V35.5537H141.627V40.6189H142.784V38.5566H146.236V40.6189H147.394V35.5537H146.236ZM159.22 35.5537V38.1442C159.22 39.1572 158.627 39.765 157.534 39.765C156.442 39.765 155.848 39.1572 155.848 38.1442V35.5537H154.69V38.231C154.69 39.7506 155.696 40.7781 157.534 40.7781C159.372 40.7781 160.378 39.7506 160.378 38.231V35.5537H159.22ZM166.291 35.5537V39.027L162.876 35.5537H161.646V40.6189H162.767V36.9575L166.4 40.6189H167.413V35.5537H166.291ZM169.934 40.6189V35.5537H168.776V40.6189H169.934ZM174.186 40.7781C176.161 40.7781 177.406 39.7795 177.406 38.0863C177.406 36.3931 176.161 35.3945 174.186 35.3945C172.21 35.3945 170.966 36.3931 170.966 38.0863C170.966 39.7795 172.21 40.7781 174.186 40.7781ZM174.186 39.7795C172.927 39.7795 172.145 39.1717 172.145 38.0863C172.145 37.0009 172.934 36.3931 174.186 36.3931C175.438 36.3931 176.226 37.0009 176.226 38.0863C176.226 39.1717 175.438 39.7795 174.186 39.7795ZM183.095 35.5537V39.027L179.68 35.5537H178.45V40.6189H179.571V36.9575L183.204 40.6189H184.217V35.5537H183.095Z" fill="#191919"/>
</svg>
