<svg viewBox="0 0 21 23" xmlns="http://www.w3.org/2000/svg">
<path d="M2.84375 0.773956C2.31332 0.773956 1.80464 0.984668 1.42957 1.35974C1.05449 1.73481 0.84375 2.24352 0.84375 2.77396V18.774C0.84375 19.3044 1.05449 19.8131 1.42957 20.1882C1.80464 20.5633 2.31332 20.774 2.84375 20.774H9.10278C8.883 20.4571 8.68968 20.1226 8.52478 19.774L8.51379 19.748C7.96549 18.606 7.73908 17.3362 7.85913 16.0752C7.97919 14.8141 8.44114 13.6098 9.19507 12.5918C9.949 11.5739 10.9664 10.781 12.1377 10.2985C13.309 9.81607 14.5896 9.66237 15.8418 9.85397V9.84796C16.18 9.8977 16.5142 9.97157 16.8418 10.069V7.59998C16.8417 7.06959 16.6308 6.56096 16.2557 6.18597L11.4277 1.35797C11.0527 0.982872 10.5442 0.772086 10.0138 0.771973L2.84375 0.773956ZM9.84375 2.22897L15.3438 7.77396H10.8438C10.5785 7.77396 10.3241 7.66862 10.1366 7.48108C9.94906 7.29354 9.84375 7.03917 9.84375 6.77396V2.22897ZM14.8438 11.774C13.5234 11.7923 12.2622 12.325 11.3285 13.2587C10.3948 14.1925 9.86211 15.4536 9.84375 16.774C9.83706 17.4324 9.96179 18.0856 10.2107 18.6953C10.4596 19.3049 10.8277 19.8588 11.2933 20.3244C11.759 20.7901 12.3128 21.1581 12.9225 21.407C13.5321 21.6559 14.1853 21.7806 14.8438 21.774C15.8329 21.7699 16.8018 21.4931 17.6438 20.974L19.1538 22.486C19.3422 22.6578 19.5895 22.7503 19.8444 22.7445C20.0992 22.7386 20.342 22.6347 20.5222 22.4544C20.7025 22.2742 20.8064 22.0314 20.8123 21.7765C20.8181 21.5217 20.7255 21.2743 20.5537 21.086L19.0417 19.577C19.5607 18.735 19.8376 17.7661 19.8418 16.7769C19.8489 16.1186 19.7246 15.4654 19.4761 14.8557C19.2276 14.246 18.8599 13.6919 18.3947 13.226C17.9294 12.7601 17.3759 12.3917 16.7665 12.1424C16.1571 11.8931 15.5041 11.7678 14.8457 11.774H14.8438ZM14.8438 13.774C15.4371 13.774 16.0172 13.9499 16.5105 14.2796C17.0038 14.6092 17.3883 15.0777 17.6154 15.6259C17.8424 16.1741 17.9019 16.7773 17.7861 17.3592C17.6704 17.9412 17.3846 18.4757 16.9651 18.8953C16.5455 19.3149 16.011 19.6006 15.4291 19.7163C14.8471 19.8321 14.2439 19.7727 13.6957 19.5456C13.1475 19.3186 12.679 18.9341 12.3494 18.4407C12.0197 17.9474 11.8438 17.3673 11.8438 16.774C11.8364 16.378 11.909 15.9846 12.0571 15.6173C12.2053 15.25 12.426 14.9164 12.7061 14.6363C12.9861 14.3563 13.3198 14.1356 13.6871 13.9874C14.0544 13.8392 14.4478 13.7666 14.8438 13.774Z" fill="white"/>
</svg>
