<svg width="25" height="25" viewBox="0 0 25 25" fill="none" xmlns="http://www.w3.org/2000/svg">
<path d="M19.9824 0.461916C19.7197 0.461535 19.4595 0.513201 19.2168 0.613772C18.9741 0.714342 18.7538 0.861768 18.5684 1.04785L16.1543 3.46192L21.1543 8.46192L23.5684 6.04785C23.9433 5.6728 24.1538 5.16436 24.1538 4.63404C24.1538 4.10371 23.9433 3.59503 23.5684 3.21997L21.3965 1.04785C21.2111 0.861768 20.9907 0.714342 20.748 0.613772C20.5054 0.513201 20.2451 0.461535 19.9824 0.461916ZM14.1543 5.46192L2.41455 17.2019C2.41455 17.2019 3.33232 17.1199 3.67432 17.4619C4.01632 17.8039 3.7343 20.0419 4.1543 20.4619C4.5743 20.8819 6.79819 20.586 7.11719 20.905C7.43619 21.224 7.41748 22.2048 7.41748 22.2048L19.1572 10.4648L14.1543 5.46192ZM1.1543 20.4619L0.211426 23.134C0.173953 23.2393 0.154549 23.3501 0.154297 23.4619C0.154297 23.7271 0.259729 23.9814 0.447266 24.1689C0.634802 24.3565 0.88908 24.4619 1.1543 24.4619C1.26602 24.461 1.37695 24.4419 1.48242 24.405H1.49219L1.51709 24.397H1.52344L4.1543 23.469L2.6543 21.969L1.1543 20.4619Z" fill="white"/>
</svg>
