<svg viewBox="0 0 28 30" xmlns="http://www.w3.org/2000/svg">
<path opacity="0.5" d="M9.85413 0.191895C8.6525 0.195587 7.50117 0.674583 6.65149 1.52426C5.80181 2.37394 5.32278 3.52528 5.31909 4.7269V12.6639H1.91919C1.61861 12.6639 1.33031 12.7832 1.11768 12.9957C0.905038 13.2081 0.785421 13.4963 0.785156 13.7969V20.5969C0.785421 20.8976 0.904945 21.1859 1.11755 21.3985C1.33016 21.6111 1.61852 21.7307 1.91919 21.7309H5.31909V25.1309C5.32278 26.3325 5.80181 27.4839 6.65149 28.3336C7.50117 29.1833 8.6525 29.6622 9.85413 29.6659H23.4602C24.6617 29.662 25.8129 29.1829 26.6625 28.3333C27.5121 27.4837 27.9912 26.3324 27.9951 25.1309V9.2619C27.9951 8.0129 26.8741 6.8619 24.9481 4.9389C24.6071 4.7139 24.3681 4.38591 24.0271 4.15991C23.8011 3.81891 23.4732 3.57992 23.2472 3.23892C21.3202 1.31192 20.1732 0.191895 18.9242 0.191895H9.85413ZM9.85413 2.45892H18.1451C18.9381 2.68492 18.9242 3.71291 18.9242 4.62091V8.0209C18.9148 8.17226 18.9377 8.32387 18.9913 8.4657C19.045 8.60752 19.1282 8.73634 19.2355 8.84357C19.3427 8.9508 19.4716 9.034 19.6134 9.08768C19.7552 9.14136 19.9068 9.16427 20.0581 9.15491H23.4581C24.5921 9.15491 25.7251 9.15491 25.7251 10.2889V25.0279C25.724 25.6289 25.4849 26.205 25.0601 26.6301C24.6352 27.0552 24.0591 27.2946 23.4581 27.2959H9.85217C9.25107 27.2946 8.67492 27.0552 8.24988 26.6302C7.82483 26.2051 7.58543 25.629 7.58411 25.0279V21.7329H20.0562C20.3568 21.7326 20.6451 21.6131 20.8577 21.4005C21.0703 21.1879 21.1899 20.8996 21.1902 20.5989V13.7989C21.1897 13.4984 21.0699 13.2104 20.8573 12.998C20.6447 12.7856 20.3567 12.6662 20.0562 12.6659H7.58411V4.72891C7.5849 4.12711 7.82434 3.5502 8.24988 3.12466C8.67541 2.69913 9.25233 2.45972 9.85413 2.45892ZM3.97217 13.7969C4.28217 13.7839 4.62311 13.7969 4.96411 13.7969C5.65717 13.7768 6.33898 13.9752 6.91309 14.3639C7.14322 14.5589 7.32422 14.8054 7.44116 15.0834C7.5581 15.3614 7.60778 15.6631 7.58618 15.9639C7.55332 16.5888 7.31688 17.1858 6.91309 17.6639C6.37691 18.1354 5.67702 18.3775 4.96411 18.3379H4.7522V20.4989C4.75142 20.5552 4.72862 20.6089 4.68884 20.6487C4.64906 20.6884 4.59543 20.7111 4.53918 20.7119H3.1571C3.14875 20.6304 3.11113 20.5547 3.05115 20.4989V14.1569C3.05115 14.0419 3.1571 14.0239 3.1571 13.9089C3.42446 13.8455 3.69755 13.809 3.97217 13.7999V13.7969ZM8.82617 13.7969H10.6332C11.5241 13.729 12.4115 13.9668 13.1492 14.4709C13.5044 14.8042 13.7809 15.2125 13.9587 15.666C14.1366 16.1195 14.2112 16.6069 14.1771 17.0929C14.2041 17.594 14.1265 18.0953 13.9496 18.5649C13.7726 19.0345 13.5001 19.4622 13.1492 19.8209C12.3512 20.4659 11.3374 20.7828 10.3141 20.7069C9.81554 20.7488 9.31358 20.7128 8.82617 20.5999C8.76633 20.5444 8.72859 20.4691 8.72009 20.3879V14.0099C8.72009 13.8949 8.82617 13.9129 8.82617 13.7999V13.7969ZM15.6261 13.7969H19.1342C19.1942 13.7967 19.2522 13.8182 19.2977 13.8573C19.3433 13.8964 19.3733 13.9506 19.3822 14.0099V15.1439C19.3748 15.2071 19.3461 15.2659 19.3011 15.3109C19.2561 15.3559 19.1974 15.3845 19.1342 15.3919H17.1141V16.5259H19.0282C19.0881 16.5255 19.1461 16.5467 19.1917 16.5856C19.2372 16.6246 19.2672 16.6786 19.2761 16.7379V17.8719C19.2687 17.9351 19.2402 17.994 19.1952 18.039C19.1502 18.084 19.0914 18.1125 19.0282 18.1199H17.1141V20.4939C17.1055 20.5534 17.0756 20.6077 17.03 20.6468C16.9845 20.686 16.9262 20.7073 16.8661 20.7069H15.6261C15.57 20.7058 15.5166 20.6831 15.4771 20.6433C15.4375 20.6036 15.415 20.55 15.4142 20.4939V14.0099C15.4157 13.9539 15.439 13.9006 15.4791 13.8614C15.5193 13.8222 15.5731 13.8001 15.6292 13.7999L15.6261 13.7969ZM4.64209 15.2859V16.8449H4.8551C4.9764 16.8588 5.0993 16.8457 5.21497 16.8066C5.33063 16.7675 5.43618 16.7034 5.52417 16.6187C5.61216 16.5341 5.68045 16.431 5.724 16.317C5.76755 16.2029 5.78531 16.0807 5.77612 15.9589C5.89112 15.3919 5.41318 15.2859 4.96118 15.2859H4.64209ZM10.3112 15.2859V19.2539H10.5242C10.7528 19.2853 10.9857 19.2595 11.202 19.1791C11.4184 19.0987 11.6115 18.966 11.7642 18.7929C12.1171 18.3407 12.2822 17.7698 12.2251 17.1989C12.4511 15.9499 11.9061 15.2859 10.7721 15.2859H10.3112Z" fill="black"/>
</svg>
